<?xml version="1.0" encoding="UTF-8" standalone="no"?>
<!-- Generator: Adobe Illustrator 21.0.0, SVG Export Plug-In . SVG Version: 6.00 Build 0)  -->

<svg
   version="1.0"
   id="Layer_1"
   x="0px"
   y="0px"
   viewBox="0 0 260.29239 95.160664"
   width="465"
   height="170"
   enable-background="new 0 0 260.9 120.1"
   xml:space="preserve"
   sodipodi:docname="KAUST_Logo.svg"
   inkscape:version="1.2.2 (b0a84865, 2022-12-01)"
   xmlns:inkscape="http://www.inkscape.org/namespaces/inkscape"
   xmlns:sodipodi="http://sodipodi.sourceforge.net/DTD/sodipodi-0.dtd"
   xmlns="http://www.w3.org/2000/svg"
   xmlns:svg="http://www.w3.org/2000/svg"
   xmlns:rdf="http://www.w3.org/1999/02/22-rdf-syntax-ns#"
   xmlns:cc="http://creativecommons.org/ns#"><defs
   id="defs194"><inkscape:perspective
     sodipodi:type="inkscape:persp3d"
     inkscape:vp_x="0 : 315.625 : 1"
     inkscape:vp_y="0 : 1000 : 0"
     inkscape:vp_z="1250 : 315.625 : 1"
     inkscape:persp3d-origin="625 : 210.41667 : 1"
     id="perspective78" /></defs><sodipodi:namedview
   id="namedview192"
   pagecolor="#000000"
   bordercolor="#000000"
   borderopacity="0.25"
   inkscape:showpageshadow="2"
   inkscape:pageopacity="0"
   inkscape:pagecheckerboard="0"
   inkscape:deskcolor="#d1d1d1"
   showgrid="true"
   inkscape:zoom="1.5611881"
   inkscape:cx="200.48834"
   inkscape:cy="12.810756"
   inkscape:window-width="2118"
   inkscape:window-height="1316"
   inkscape:window-x="2119"
   inkscape:window-y="296"
   inkscape:window-maximized="0"
   inkscape:current-layer="Layer_1" />


























































































<g
   id="g1622"
   transform="translate(2.137529,0.40735287)"
   style="fill:#ffffff"><path
     fill="#f09021"
     d="m 61.965503,55.14101 c 1.4,-2.1 2.1,-4.7 2,-7.3 0,-1.6 -0.2,-3.2 -0.7,-4.8 -1.6,1.4 -2.5,3.4 -2.5,5.5 0.1,2.3 0.5,4.5 1.2,6.6"
     id="path151"
     style="fill:#ffffff" /><path
     fill="#f09021"
     d="m 79.165503,38.04101 c 0.5,2.6 0.7,5.2 0.7,7.8 0,9.7 -1.9,16.6 -4.8,21.6 0.5,0.1 1,0.1 1.5,0.1 13.6,0 16.5,-12.6 16.5,-18.1 0,-8.9 -9,-11.2 -13.9,-11.4"
     id="path153"
     style="fill:#ffffff" /><path
     fill="#f09021"
     d="m 65.465503,47.94101 c 0.1,3.2 -0.9,6.3 -2.9,8.8 0.5,1.3 1.2,2.5 1.9,3.7 2.7,-3.1 4,-7.5 4,-13.2 0,-2.3 -0.4,-4.6 -1.1,-6.7 -1,0.5 -1.9,1 -2.8,1.7 0.6,1.7 0.9,3.7 0.9,5.7"
     id="path155"
     style="fill:#ffffff" /><path
     fill="#f09021"
     d="m 70.165503,47.24101 c 0,7 -1.9,11.6 -4.7,14.6 0.7,0.9 1.6,1.7 2.5,2.5 3,-3.8 5,-9.4 5,-17.8 0,-2.6 -0.3,-5.1 -1,-7.6 -1,0.3 -2,0.6 -2.9,0.9 0.7,2.3 1.2,4.8 1.1,7.4"
     id="path157"
     style="fill:#ffffff" /><path
     fill="#f09021"
     d="m 75.065503,46.54101 c 0,9 -2.2,15 -5.4,19.1 0.9,0.6 1.9,1 2.9,1.3 2.9,-4.7 4.8,-11.5 4.8,-21.1 0,-2.6 -0.3,-5.2 -0.8,-7.8 -0.8,0.1 -1.7,0.2 -2.7,0.4 0.8,2.6 1.2,5.3 1.2,8.1"
     id="path159"
     style="fill:#ffffff" /><path
     fill="#efb61d"
     d="m 47.865502,26.141011 c 7.500001,0 13.700001,2.9 17.700001,7.599999 0.8,-1.1 1.5,-2.3 2.1,-3.5 -3.6,-4.499999 -9.1,-7.499999 -16.600001,-7.499999 -6.1,0.2 -12.1,1.3 -17.9,3.4 0.1,0.8 0.4,1.6 0.8,2.3 4.5,-1.5 9.2,-2.3 13.9,-2.3"
     id="path161"
     style="fill:#ffffff" /><path
     fill="#efb61d"
     d="m 69.665503,20.341011 c -0.5,-6.8 -4.1,-18.0000014 -16.6,-18.0000014 -9.700001,0 -15.500001,9.1000014 -18.200001,16.1000014 6.3,-2 12.8,-3.1 19.300001,-3.2 5.6,-0.2 11.1,1.6 15.5,5.1"
     id="path163"
     style="fill:#ffffff" /><path
     fill="#efb61d"
     d="m 37.065502,32.34101 c 2.5,-0.6 5.1,-0.8 7.7,-0.8 4.2,0 12.300001,0.8 17.000001,5.9 1,-0.7 1.9,-1.4 2.7,-2.3 -3.6,-4.5 -9.5,-7.299999 -16.600001,-7.299999 -4.4,0 -8.8,0.7 -13.1,2.099999 0.7,0.9 1.5,1.7 2.3,2.4"
     id="path165"
     style="fill:#ffffff" /><path
     fill="#efb61d"
     d="m 60.465503,38.14101 c -4.4,-4.5 -11.800001,-5.2 -15.600001,-5.2 -2.1,0 -4.2,0.2 -6.2,0.5 4.8,3.5 11.7,6 16.200001,6 1.8,0.1 3.8,-0.3 5.6,-1.3"
     id="path167"
     style="fill:#ffffff" /><path
     fill="#efb61d"
     d="m 51.065502,20.641011 c 7.800001,0 13.600001,3 17.500001,7.5 0.5,-1.5 0.9,-3 1.1,-4.6 -3.4,-3.5 -8.4,-5.9 -15.5,-5.9 -6.900001,0.2 -13.800001,1.5 -20.300001,3.7 -0.2,0.8 -0.4,1.7 -0.6,2.5 5.7,-2 11.7,-3.1 17.8,-3.2"
     id="path169"
     style="fill:#ffffff" /><path
     fill="#cccd2b"
     d="m 18.365503,39.54101 c 0,-5.7 3.6,-9.8 8.6,-12.799999 -0.7,-0.5 -1.5,-0.9 -2.3,-1.1 -4.7,3 -7.9,7.099999 -7.9,12.299999 0,4.7 1.7,10.7 4.8,16.5 0.5,0 1,-0.1 1.5,-0.3 -3,-5.1 -4.7,-10.5 -4.7,-14.6"
     id="path171"
     style="fill:#ffffff" /><path
     fill="#cccd2b"
     d="m 22.365503,41.14101 c 0,-4.9 3.2,-8.4 7.5,-10.8 -0.3,-0.7 -0.8,-1.399999 -1.3,-1.999999 -4.7,2.599999 -8.1,6.199999 -8.1,11.299999 0,3.9 1.6,8.9 4.4,13.8 0.5,-0.4 0.9,-0.7 1.3,-1.2 -2.4,-4 -3.7,-8 -3.8,-11.1"
     id="path173"
     style="fill:#ffffff" /><path
     fill="#cccd2b"
     d="m 21.365503,24.941011 c -0.6,-0.1 -1.2,-0.1 -1.8,-0.1 -5.7,0 -17.9,4.699999 -17.9,13.399999 0,9.3 10.3,15 17,16.1 -2.9,-5.9 -4.5,-11.8 -4.5,-16.4 0.1,-5.4 2.9,-9.699999 7.2,-12.999999"
     id="path175"
     style="fill:#ffffff" /><path
     fill="#cccd2b"
     d="m 26.265503,42.64101 c 0,-3.2 1.7,-6 4.7,-7.9 0,-1 -0.2,-2 -0.5,-2.9 -3.8,2.1 -6.4,5.1 -6.4,9.2 0.2,3.4 1.3,6.7 3.1,9.7 0.4,-0.6 0.7,-1.3 1,-1.9 -1.1,-1.9 -1.8,-4 -1.9,-6.2"
     id="path177"
     style="fill:#ffffff" /><path
     fill="#cccd2b"
     d="m 27.765503,42.64101 c 0.1,1.6 0.5,3.1 1.2,4.5 1.2,-3.4 1.9,-7 2.1,-10.6 -2.1,1.4 -3.3,3.7 -3.3,6.1"
     id="path179"
     style="fill:#ffffff" /><path
     fill="#07a6aa"
     d="m 49.465502,61.34101 c -6.2,-0.1 -12.1,-2.5 -16.5,-6.7 -0.8,0.3 -1.499999,0.6 -2.199999,1 4.699999,5.5 11.599999,10 19.899999,10 3.500001,0.1 6.900001,-0.6 10.000001,-2.1 -0.5,-1.4 -1.2,-2.7 -2.1,-3.8 -3,1.1 -6,1.7 -9.100001,1.6"
     id="path181"
     style="fill:#ffffff" /><path
     fill="#07a6aa"
     d="m 22.865503,61.14101 c -2.9,2.9 -4.7,6.1 -4.7,9.4 0,12.6 19.599999,19.700005 27.199999,19.700005 9.000001,0 13.200001,-5.700005 15.000001,-11.700005 -2.5,0.6 -5.1,0.9 -7.7,0.9 -12.600001,-0.1 -23,-8.4 -29.8,-18.3"
     id="path183"
     style="fill:#ffffff" /><path
     fill="#07a6aa"
     d="m 42.265502,52.64101 c -2.7,0 -5.3,0.5 -7.8,1.4 4.1,3.7 9.5,5.8 15,5.8 2.700001,0.1 5.400001,-0.4 7.900001,-1.3 -4.8,-4.9 -12.300001,-5.9 -15.100001,-5.9"
     id="path185"
     style="fill:#ffffff" /><path
     fill="#07a6aa"
     d="m 50.565502,67.34101 c -8.9,0 -16.4,-5 -21.399999,-10.9 -0.6,0.3 -1.1,0.6 -1.7,1 5.499999,7.5 13.999999,13.8 24.099999,13.8 3.400001,0.1 6.800001,-0.6 9.900001,-1.9 0,-1.4 -0.2,-2.8 -0.5,-4.1 -3.3,1.4 -6.8,2.2 -10.400001,2.1"
     id="path187"
     style="fill:#ffffff" /><path
     fill="#07a6aa"
     d="m 51.565502,73.34101 c -10.8,0 -19.899999,-6.8 -25.799999,-14.8 -0.4,0.3 -0.8,0.7 -1.2,1 6.4,9.4 16.199999,17.3 28.1,17.3 2.8,0 5.6,-0.4 8.3,-1.2 0.3,-1.4 0.4,-2.8 0.5,-4.2 -3.1,1.3 -6.5,1.9 -9.900001,1.9"
     id="path189"
     style="fill:#ffffff" /></g>
<metadata
   id="metadata2720"><rdf:RDF><cc:Work
       rdf:about="" /></rdf:RDF></metadata><g
   id="#938982ff"
   transform="matrix(0.32225476,0,0,0.32225476,-73.809849,-52.186928)"
   style="fill:#ffffff"><path
     d="m 851.32,256.25 c 6.58,-6.94 16.41,-9.28 25.63,-9.9 10.2,-0.67 20.35,1.01 30.34,2.93 0.03,5.2 -0.08,10.41 -0.06,15.62 -8.81,-4.26 -18.3,-7.73 -28.2,-7.78 -5.63,0.07 -11.57,2.47 -14.67,7.35 -2.68,4.22 -2.42,9.82 0.1,14.04 2.91,5.08 8.18,8.08 13.01,11.08 10.92,6.43 23.36,11.25 31.6,21.32 7.74,9.43 7.93,23.36 3,34.13 -5.26,10.36 -16.98,15.57 -28.05,16.75 -12.95,1 -26.32,0.59 -38.62,-3.94 0.17,-5.78 0.18,-11.57 0.27,-17.35 10.3,5.31 21.42,10.5 33.3,9.88 5.44,-0.47 11.61,-1.64 15.15,-6.24 4.91,-6.52 3.86,-16.62 -2.1,-22.14 -11.82,-11.24 -28.99,-14.88 -40.12,-26.99 -9.8,-10.28 -10.6,-28.37 -0.58,-38.76 z"
     id="path50"
     style="opacity:1;fill:#ffffff" /><path
     d="m 570.96,248.13 c 5.75,-0.45 11.52,-0.24 17.28,-0.04 0.05,16.29 -0.15,32.58 0.19,48.87 12.5,-15.86 22.84,-33.3 35.31,-49.19 5.32,0.16 10.64,0.19 15.97,0.25 -11.07,17.53 -23.49,34.15 -35.48,51.05 13.46,13.44 21.26,31.09 32.09,46.49 2.58,3.52 4.93,7.53 8.96,9.58 11.95,-35.85 23.36,-71.9 36.24,-107.43 5.91,0.28 11.84,0.25 17.76,0.08 13.44,37.43 25.59,75.31 38.06,113.07 -6.16,0.01 -12.31,0 -18.45,0 -3.91,-11.03 -6.95,-22.34 -10.6,-33.45 -12.08,-0.03 -24.16,0.02 -36.24,-0.03 -0.55,0.08 -1.65,0.25 -2.2,0.33 -3.97,10.69 -6.23,21.96 -10.6,32.52 -7.37,1.37 -14.88,0.24 -22.31,0.64 -3.55,-0.07 -7.88,0.73 -10.52,-2.26 -14.29,-16.22 -21.45,-37.78 -37.71,-52.42 -0.99,18.18 -0.12,36.4 -0.55,54.6 -5.94,0.18 -11.87,0.01 -17.8,-0.25 -0.02,-36.18 -0.01,-72.36 0,-108.54 -0.09,-1.33 0.25,-2.61 0.6,-3.87 m 117.58,18.28 c -5.13,16.59 -10.06,33.25 -15.18,49.86 10.49,0.02 20.99,-0.04 31.48,0.03 -4.23,-14.79 -8.87,-29.47 -13.17,-44.24 -0.53,-2.14 -1.74,-3.99 -3.13,-5.65 z"
     id="path52"
     style="opacity:1;fill:#ffffff" /><path
     d="m 748.43,320.05 c 0,-24.05 -0.11,-48.11 0.17,-72.16 6.05,0.09 12.1,0.02 18.16,0.05 0.03,26 0.08,52.01 0.08,78.01 0.06,7.2 0.58,15.1 5.28,20.94 4.93,5.56 13.17,6.25 20.06,4.96 3.93,-0.51 7.68,-2.54 9.93,-5.87 3.98,-5.82 4.48,-13.17 4.54,-20.01 0.08,-26.01 0.09,-52.02 0.12,-78.03 5.98,-0.01 11.95,-0.1 17.94,-0.15 0.75,24.39 0.23,48.79 0.35,73.19 0,11.13 -0.97,23.59 -9.02,32.1 -8.57,8.51 -21.51,9.62 -32.95,9.16 -10.18,-0.1 -21.25,-3.26 -27.66,-11.69 -6.25,-8.81 -6.95,-20.05 -7,-30.5 z"
     id="path54"
     style="opacity:1;fill:#ffffff" /><path
     d="m 921.54,248.1 c 24.11,-0.32 48.22,-0.22 72.33,-0.16 0.01,3.71 0.01,7.41 0.01,11.12 -8.96,0.03 -17.92,0 -26.88,-0.06 -0.08,33.78 -0.06,67.57 0.07,101.35 -6.12,0.65 -12.28,0.51 -18.41,0.44 -0.26,-34 0.37,-68 -0.44,-101.99 -8.87,0.25 -17.75,0.14 -26.62,0.28 -0.01,-3.66 -0.07,-7.32 -0.06,-10.98 z"
     id="path56"
     style="opacity:1;fill:#ffffff" /></g></svg>
